<svg version="1.2" xmlns="http://www.w3.org/2000/svg" viewBox="0 0 310 230" width="310" height="230">
	<title>noun-health-499478-0A9989-svg</title>
	<style>
		.s0 { fill: #298294 } 
	</style>
	<g id="Layer">
		<path id="Layer" class="s0" d="m71.5 116.7c0 10.9 1.9 21.6 5.5 31.2-3.6-0.6-7.1-1.6-11-2.9-12.6-4.5-26.8-13.2-37.7-30.3-11.6-7.7-16.1-12.9-16.5-13.2l-0.3-0.3v-0.7c0-0.3-0.3-8.7 1-14.5 1.9-8.4 4.8-15.5 8.7-20.9 4.8-6.8 11.3-12.9 15.1-15.5 1.7-1.3 4.2-2.9 6.8-4.8 2.9-2.3 6.5-4.6 9.4-6.8 5.4-3.9 9.3-9 10.6-11 1.3-1.6 2.3-4.2 3.6-6.8v-0.3c1.2-2.6 2.2-5.1 6.1-6.4 3.8-1.6 7.4 0 8 0.3l29.1 10.3c1.2 0.7 1.6 1.9 1.9 2.9 0.6 1.6-0.7 3.2-0.7 3.6l-4.5 12.9c0 0.3-0.6 2.2-2.2 2.9-1.6 0.6-3.2 0-3.2 0 1.6-4.6 3.5-10 5.4-14.9 0 0 0.7-1.6 0-2.9-0.3-0.9-1.3 2.3-1.3 2.3-1.2 3.5-5.1 14.5-6.4 17.4-1.9 1.6-4.8 0.6-4.8 0.6 1.6-4.5 3.5-9.6 5.1-14.1 0 0 0.7-2 0-3.6-0.3-1-1.3 2.9-1.3 2.9-1.3 3.2-4.8 13.6-5.8 16.5-1.3 1.9-4.2 1.2-4.2 0.9l-10.6-3.8c-0.3 0-1.9-0.7-2.3-2.6-0.3-2 1.6-7.8 2.3-8.7 1 0.3 10 3.8 10 3.8l-0.3 1.6c0 0.4 0.3 1.3 0.9 1.3 0.4 0 1.3 0.4 1.3 0l2-5.4c0-0.4-0.7-1-1-1-0.3 0-1.3 0-1.3 0.3l-0.6 1.9c-1.3-0.3-2.3-0.9-3.6-1.2-4.5-1.7-7.4-3.3-8.1-3.3-0.3 0.7-2.5 6.5-2.9 9.7 0 0-0.9 2.3-0.9 2.9-0.7 2.3-1.6 6.5-2.3 10.3-0.6 2.9-1.3 5.8-1.9 8.1-1 3.5-2.9 8.7-4.9 12.6-2.2 0.9-5.4 2.5-8 5.1-0.3 0.3-0.3 1-0.3 1.3 0.3 0.3 0.9 0.3 1.2 0.3 3.6-3.5 10-5.8 10.4-5.8 3.8-0.9 8.7-0.9 13.5 1 3.2 1.3 5.8 2.6 7.7 4.5-10.6 7.4-16.7 19.4-16.7 32.3z"/>
		<path id="Layer" class="s0" d="m215 87.3c-11-6.1-24.5-5.2-37.1 2.9-11.3 7.1-20.3 18.1-20.6 18.1l-2.6 3.2-2.6-3.2c0 0-9-11-20.3-18.1-7.1-4.5-14.5-6.8-21.6-6.8q-8.2 0-15.5 3.9c-10.6 5.8-16.8 16.8-16.8 29.4 0 60.3 65.5 100.9 76.5 107.3 11.2-6.7 76.7-49 76.7-107.3 0.6-12.6-5.5-23.6-16.1-29.4z"/>
		<path id="Layer" class="s0" d="m301.7 100.8v0.7l-0.3 0.3c-0.3 0.3-4.5 5.5-16.5 13.2-10.9 17.1-25.1 25.8-37.7 30.3-5.1 2-10.3 2.9-14.5 3.6 3.6-10 5.8-20.6 5.8-31.9 0-12.3-5.1-23.6-14.2-31 2.3-2.2 5.2-4.5 9.4-6.1 4.8-1.9 9.3-1.9 13.5-1 1.6 0.3 6.5 2.3 10 5.8 0.3 0.4 0.7 0.4 0.7 0.4 0 0 0.3 0 0.3-0.4q0.5-0.5 0-0.9c-2.6-2.6-5.8-4.2-8.1-5.2-1.9-3.9-3.9-9-4.8-12.6-0.7-2.2-1.3-5.1-2-8-0.9-3.9-1.6-8.1-2.2-10.4-0.3-0.6-1-2.9-1-2.9-0.3-3.2-2.6-9-2.9-9.6-0.6 0.3-3.5 1.9-8 3.2-1.3 0.3-2.3 0.6-3.6 1.3l-0.6-1.9c0-0.4-1-0.4-1.3-0.4-0.3 0-1 0.7-1 1l1.9 5.5c0 0.3 1 0.3 1.3 0.3 0.4 0 1-0.6 1-1.3l-1-1.9c0 0 8.4-2.6 10.4-3.9 0.3 1 2.2 7.1 1.9 8.7-0.3 1.6-1.9 2.3-2.3 2.6l-10.6 3.9c-0.3 0-2.9 0.6-4.2-1-1-2.9-4.5-12.9-5.8-16.5 0 0-1-3.8-1.3-2.9-0.6 1.7 0 3.3 0 3.6 1.6 4.2 3.5 9.3 5.2 14.2 0 0-2.6 1.3-4.9-0.7-0.9-3.2-5.1-13.8-6.4-17.4 0 0-1-3.2-1.3-2.2-0.7 1.6 0 2.9 0 2.9 1.6 4.8 3.9 10.3 5.5 14.8 0 0-3.9 1-5.5-2.9l-4.5-12.9c-2-5.2 2.2-7.1 2.2-7.1l27.8-9.7c0.6-0.3 4.2-1.9 8-0.3 3.9 1.6 4.9 3.9 6.1 6.5v0.3c1.3 2.6 2.3 5.1 3.6 6.8 1.3 1.6 5.2 7 10.6 10.9q4.9 3.4 9.7 6.8c2.6 1.9 5.2 3.5 6.8 4.8 3.8 2.6 10.3 9.1 15.1 15.5 3.9 5.5 6.8 12.3 8.7 21 1.3 5.4 1 13.5 1 14.1z"/>
	</g>
</svg>