<svg version="1.2" xmlns="http://www.w3.org/2000/svg" viewBox="0 0 400 320" width="400" height="320"><style>tspan{white-space:pre}.a{fill:#0a9988}.b{font-size: 78px;fill: #07675c;font-weight: 400;font-family: "ChunkFive-Regular", "ChunkFive"}</style><path class="a" d="m121.4 130.9c0 10.9 2 21.6 5.5 31.2-3.5-0.6-7.1-1.6-10.9-2.8-12.6-4.5-26.8-13.2-37.8-30.3-11.6-7.7-16.2-12.9-16.5-13.2l-0.3-0.3v-0.6c0-0.4-0.4-8.7 0.9-14.5 1.9-8.4 4.8-15.5 8.7-21 4.8-6.8 11.3-12.9 15.1-15.5 1.6-1.3 4.2-2.9 6.8-4.9 2.9-2.2 6.4-4.5 9.3-6.8 5.5-3.8 9.4-9 10.7-10.9 1.2-1.7 2.2-4.2 3.5-6.8v-0.3c1.3-2.6 2.2-5.2 6.1-6.5 3.9-1.6 7.4 0 8.1 0.3l29 10.3c1.3 0.6 1.6 1.9 1.9 2.9 0.7 1.6-0.6 3.2-0.6 3.5l-4.5 12.9c0 0.4-0.6 2.3-2.2 2.9-1.7 0.7-3.3 0-3.3 0 1.6-4.5 3.6-10 5.5-14.8 0 0 0.6-1.6 0-2.9-0.3-1-1.3 2.3-1.3 2.3-1.3 3.5-5.1 14.5-6.4 17.4-2 1.6-4.9 0.6-4.9 0.6 1.6-4.5 3.6-9.6 5.2-14.2 0 0 0.6-1.9 0-3.5-0.4-1-1.3 2.9-1.3 2.9-1.3 3.2-4.8 13.5-5.8 16.5-1.3 1.9-4.2 1.2-4.2 0.9l-10.6-3.8c-0.3 0-2-0.7-2.3-2.6-0.3-1.9 1.6-7.7 2.3-8.7 0.9 0.3 10 3.8 10 3.8l-0.4 1.7c0 0.3 0.4 1.2 1 1.2 0.3 0 1.3 0.4 1.3 0l1.9-5.4c0-0.4-0.6-1-0.9-1-0.4 0-1.3 0-1.3 0.3l-0.7 2c-1.3-0.4-2.2-1-3.5-1.3-4.5-1.6-7.5-3.2-8.1-3.2-0.3 0.6-2.6 6.4-2.9 9.6 0 0-0.9 2.3-0.9 2.9-0.7 2.3-1.6 6.5-2.3 10.4-0.6 2.9-1.3 5.8-1.9 8-1 3.6-2.9 8.7-4.8 12.6-2.3 1-5.5 2.6-8.1 5.2-0.3 0.3-0.3 0.9-0.3 1.3 0.3 0.3 1 0.3 1.3 0.3 3.5-3.6 10-5.8 10.3-5.8 3.9-1 8.7-1 13.5 0.9 3.3 1.3 5.9 2.6 7.8 4.5-10.6 7.4-16.7 19.4-16.7 32.3z"/><path class="a" d="m264.8 101.3c-11-6.1-24.5-5.1-37.1 3-11.2 7.1-20.2 18.1-20.6 18.1l-2.5 3.2-2.6-3.2c0 0-9.1-11-20.4-18.1-7.1-4.5-14.5-6.7-21.6-6.7q-8.2 0-15.4 3.9c-10.7 5.8-16.8 16.8-16.8 29.4 0.1 60.3 65.7 100.8 76.6 107.2 11.3-6.8 76.7-49.1 76.6-107.5 0.6-12.6-5.5-23.5-16.2-29.3z"/><path class="a" d="m351.6 114.7v0.6l-0.3 0.4c-0.4 0.3-4.5 5.5-16.5 13.2-10.9 17.1-25.1 25.8-37.6 30.4-5.2 1.9-10.3 2.9-14.5 3.6 3.5-10.1 5.7-20.7 5.7-32 0-12.2-5.2-23.5-14.2-30.9 2.2-2.3 5.1-4.5 9.3-6.1 4.8-2 9.4-2 13.6-1 1.6 0.3 6.4 2.2 10 5.7 0.3 0.4 0.6 0.4 0.6 0.4 0 0 0.3 0 0.3-0.4q0.5-0.4 0-0.9c-2.6-2.6-5.8-4.2-8-5.2-2-3.8-3.9-9-4.9-12.5-0.7-2.3-1.3-5.2-1.9-8.1-1-3.9-1.7-8.1-2.3-10.3-0.3-0.6-1-2.9-1-2.9-0.3-3.2-2.6-9-2.9-9.7-0.7 0.4-3.6 2-8.1 3.3-1.3 0.3-2.2 0.6-3.5 1.3l-0.7-2c0-0.3-0.9-0.3-1.3-0.3-0.3 0-0.9 0.7-0.9 1l1.9 5.5c0 0.3 1 0.3 1.3 0.3 0.3 0 1-0.7 1-1.3l-1-2c0 0 8.4-2.5 10.3-3.8 0.3 0.9 2.3 7 2 8.7-0.4 1.6-2 2.2-2.3 2.5l-10.6 3.9c-0.3 0-2.9 0.7-4.2-0.9-1-2.9-4.6-12.9-5.8-16.5 0 0-1-3.8-1.3-2.9-0.7 1.7 0 3.3 0 3.6 1.6 4.2 3.5 9.3 5.1 14.2 0 0-2.5 1.3-4.8-0.7-1-3.2-5.2-13.8-6.5-17.4 0 0-0.9-3.2-1.3-2.2-0.6 1.6 0 2.9 0 2.9 1.7 4.8 3.9 10.3 5.6 14.8 0 0-3.9 1-5.5-2.9l-4.6-12.9c-1.9-5.1 2.3-7.1 2.3-7.1l27.7-9.7c0.6-0.3 4.2-1.9 8-0.3 3.9 1.6 4.9 3.8 6.2 6.4v0.3c1.3 2.6 2.3 5.2 3.5 6.8 1.3 1.6 5.2 7.1 10.7 10.9q4.8 3.4 9.7 6.8c2.6 1.9 5.2 3.5 6.8 4.8 3.8 2.6 10.3 9 15.1 15.5 3.9 5.4 6.8 12.2 8.8 20.9 1.3 5.5 1 13.6 1 14.2z"/><text style="transform:matrix(1,-0.002,.002,1,25.177,294.987)" ><tspan x="0" y="0" class="b">M</tspan><tspan  y="0" class="b">o</tspan><tspan  y="0" class="b">v</tspan><tspan  y="0" class="b">e</tspan><tspan  y="0" class="b">L</tspan><tspan  y="0" class="b">i</tspan><tspan  y="0" class="b">f</tspan><tspan  y="0" class="b">e
</tspan></text></svg>